999
dxfrw 0.5.10
0
SECTION
2
HEADER
9
$ACADVER
1
AC1021
9
$HANDSEED
5
20000
9
$DWGCODEPAGE
3
ANSI_1252
9
$INSBASE
10
0
20
0
30
0
9
$EXTMIN
10
-38.4947894041
20
-38.5
30
0
9
$EXTMAX
10
38.4947894041
20
38.5
30
0
9
$LIMMIN
10
0
20
0
9
$LIMMAX
10
420
20
297
9
$ORTHOMODE
70
0
9
$LTSCALE
40
1
9
$TEXTSTYLE
7
STANDARD
9
$CLAYER
8
stands_top
9
$DIMASZ
40
2.5
9
$DIMLFAC
40
1
9
$DIMSCALE
40
1
9
$DIMEXO
40
0.625
9
$DIMEXE
40
1.25
9
$DIMTXT
40
2.5
9
$DIMTSZ
40
0
9
$DIMAUNIT
70
0
9
$DIMADEC
70
0
9
$DIMLUNIT
70
2
9
$DIMSTYLE
2
STANDARD
9
$DIMGAP
40
0.625
9
$DIMTIH
70
0
9
$LUNITS
70
2
9
$LUPREC
70
4
9
$AUNITS
70
0
9
$AUPREC
70
2
9
$SPLINESEGS
70
8
9
$GRIDMODE
70
1
9
$SNAPSTYLE
70
0
9
$PINSBASE
10
0
20
0
30
0
9
$PLIMMIN
10
0
20
0
9
$PLIMMAX
10
210
20
297
9
$INSUNITS
70
4
9
$PSVPSCALE
40
1
0
ENDSEC
0
SECTION
2
CLASSES
0
ENDSEC
0
SECTION
2
TABLES
0
TABLE
2
VPORT
5
8
330
0
100
AcDbSymbolTable
70
1
0
VPORT
5
31
330
2
100
AcDbSymbolTableRecord
100
AcDbViewportTableRecord
2
*ACTIVE
70
0
10
0
20
0
11
1
21
1
12
27.7910016976
22
21.4266501638
13
0
23
0
14
10
24
10
15
10
25
10
16
0
26
0
36
1
17
0
27
0
37
0
40
65.3406757469
41
1.77056277056
42
50
43
0
44
0
50
0
51
0
71
0
72
100
73
1
74
3
75
0
76
1
77
0
78
0
281
0
65
1
110
0
120
0
130
0
111
1
121
0
131
0
112
0
122
1
132
0
79
0
146
0
348
10020
60
7
61
5
292
1
282
1
141
0
142
0
63
250
421
3358443
0
ENDTAB
0
TABLE
2
LTYPE
5
5
330
0
100
AcDbSymbolTable
70
4
0
LTYPE
5
14
330
5
100
AcDbSymbolTableRecord
100
AcDbLinetypeTableRecord
2
ByBlock
70
0
3

72
65
73
0
40
0
0
LTYPE
5
15
330
5
100
AcDbSymbolTableRecord
100
AcDbLinetypeTableRecord
2
ByLayer
70
0
3

72
65
73
0
40
0
0
LTYPE
5
16
330
5
100
AcDbSymbolTableRecord
100
AcDbLinetypeTableRecord
2
Continuous
70
0
3
Solid line
72
65
73
0
40
0
0
LTYPE
5
32
330
5
100
AcDbSymbolTableRecord
100
AcDbLinetypeTableRecord
2
DOT
70
0
3
Dot . . . . . . . . . . . . . . . . . . . . . .
72
65
73
2
40
6.35
49
0
74
0
49
-6.35
74
0
0
LTYPE
5
33
330
5
100
AcDbSymbolTableRecord
100
AcDbLinetypeTableRecord
2
DOT2
70
0
3
Dot (.5x) .....................................
72
65
73
2
40
3.175
49
0
74
0
49
-3.175
74
0
0
LTYPE
5
34
330
5
100
AcDbSymbolTableRecord
100
AcDbLinetypeTableRecord
2
DOTX2
70
0
3
Dot (2x) .  .  .  .  .  .  .  .  .  .  .  .  .
72
65
73
2
40
12.7
49
0
74
0
49
-12.7
74
0
0
LTYPE
5
35
330
5
100
AcDbSymbolTableRecord
100
AcDbLinetypeTableRecord
2
DASHED
70
0
3
Dot . . . . . . . . . . . . . . . . . . . . . .
72
65
73
2
40
19.05
49
12.7
74
0
49
-6.35
74
0
0
LTYPE
5
36
330
5
100
AcDbSymbolTableRecord
100
AcDbLinetypeTableRecord
2
DASHED2
70
0
3
Dashed (.5x) _ _ _ _ _ _ _ _ _ _ _ _ _ _ _ _ _
72
65
73
2
40
9.525
49
6.35
74
0
49
-3.175
74
0
0
LTYPE
5
37
330
5
100
AcDbSymbolTableRecord
100
AcDbLinetypeTableRecord
2
DASHEDX2
70
0
3
Dashed (2x) ____  ____  ____  ____  ____  ___
72
65
73
2
40
38.1
49
25.4
74
0
49
-12.7
74
0
0
LTYPE
5
38
330
5
100
AcDbSymbolTableRecord
100
AcDbLinetypeTableRecord
2
DASHDOT
70
0
3
Dash dot __ . __ . __ . __ . __ . __ . __ . __
72
65
73
4
40
25.4
49
12.7
74
0
49
-6.35
74
0
49
0
74
0
49
-6.35
74
0
0
LTYPE
5
39
330
5
100
AcDbSymbolTableRecord
100
AcDbLinetypeTableRecord
2
DASHDOT2
70
0
3
Dash dot (.5x) _._._._._._._._._._._._._._._.
72
65
73
4
40
12.7
49
6.35
74
0
49
-3.175
74
0
49
0
74
0
49
-3.175
74
0
0
LTYPE
5
3A
330
5
100
AcDbSymbolTableRecord
100
AcDbLinetypeTableRecord
2
DASHDOTX2
70
0
3
Dash dot (2x) ____  .  ____  .  ____  .  ___
72
65
73
4
40
50.8
49
25.4
74
0
49
-12.7
74
0
49
0
74
0
49
-12.7
74
0
0
LTYPE
5
3B
330
5
100
AcDbSymbolTableRecord
100
AcDbLinetypeTableRecord
2
DIVIDE
70
0
3
Divide ____ . . ____ . . ____ . . ____ . . ____
72
65
73
6
40
31.75
49
12.7
74
0
49
-6.35
74
0
49
0
74
0
49
-6.35
74
0
49
0
74
0
49
-6.35
74
0
0
LTYPE
5
3C
330
5
100
AcDbSymbolTableRecord
100
AcDbLinetypeTableRecord
2
DIVIDE2
70
0
3
Divide (.5x) __..__..__..__..__..__..__..__.._
72
65
73
6
40
15.875
49
6.35
74
0
49
-3.175
74
0
49
0
74
0
49
-3.175
74
0
49
0
74
0
49
-3.175
74
0
0
LTYPE
5
3D
330
5
100
AcDbSymbolTableRecord
100
AcDbLinetypeTableRecord
2
DIVIDEX2
70
0
3
Divide (2x) ________  .  .  ________  .  .  _
72
65
73
6
40
63.5
49
25.4
74
0
49
-12.7
74
0
49
0
74
0
49
-12.7
74
0
49
0
74
0
49
-12.7
74
0
0
LTYPE
5
3E
330
5
100
AcDbSymbolTableRecord
100
AcDbLinetypeTableRecord
2
BORDER
70
0
3
Border __ __ . __ __ . __ __ . __ __ . __ __ .
72
65
73
6
40
44.45
49
12.7
74
0
49
-6.35
74
0
49
12.7
74
0
49
-6.35
74
0
49
0
74
0
49
-6.35
74
0
0
LTYPE
5
3F
330
5
100
AcDbSymbolTableRecord
100
AcDbLinetypeTableRecord
2
BORDER2
70
0
3
Border (.5x) __.__.__.__.__.__.__.__.__.__.__.
72
65
73
6
40
22.225
49
6.35
74
0
49
-3.175
74
0
49
6.35
74
0
49
-3.175
74
0
49
0
74
0
49
-3.175
74
0
0
LTYPE
5
40
330
5
100
AcDbSymbolTableRecord
100
AcDbLinetypeTableRecord
2
BORDERX2
70
0
3
Border (2x) ____  ____  .  ____  ____  .  ___
72
65
73
6
40
88.9
49
25.4
74
0
49
-12.7
74
0
49
25.4
74
0
49
-12.7
74
0
49
0
74
0
49
-12.7
74
0
0
LTYPE
5
41
330
5
100
AcDbSymbolTableRecord
100
AcDbLinetypeTableRecord
2
CENTER
70
0
3
Center ____ _ ____ _ ____ _ ____ _ ____ _ ____
72
65
73
4
40
50.8
49
31.75
74
0
49
-6.35
74
0
49
6.35
74
0
49
-6.35
74
0
0
LTYPE
5
42
330
5
100
AcDbSymbolTableRecord
100
AcDbLinetypeTableRecord
2
CENTER2
70
0
3
Center (.5x) ___ _ ___ _ ___ _ ___ _ ___ _ ___
72
65
73
4
40
28.575
49
19.05
74
0
49
-3.175
74
0
49
3.175
74
0
49
-3.175
74
0
0
LTYPE
5
43
330
5
100
AcDbSymbolTableRecord
100
AcDbLinetypeTableRecord
2
CENTERX2
70
0
3
Center (2x) ________  __  ________  __  _____
72
65
73
4
40
101.6
49
63.5
74
0
49
-12.7
74
0
49
12.7
74
0
49
-12.7
74
0
0
ENDTAB
0
TABLE
2
LAYER
5
2
330
0
100
AcDbSymbolTable
70
1
0
LAYER
5
10
330
2
100
AcDbSymbolTableRecord
100
AcDbLayerTableRecord
2
0
70
1
62
7
6
CONTINUOUS
370
0
390
F
0
LAYER
5
44
330
2
100
AcDbSymbolTableRecord
100
AcDbLayerTableRecord
2
fligtcontroller
70
5
62
7
6
CONTINUOUS
370
0
390
F
0
LAYER
5
45
330
2
100
AcDbSymbolTableRecord
100
AcDbLayerTableRecord
2
frame
70
5
62
7
6
CONTINUOUS
370
0
390
F
0
LAYER
5
46
330
2
100
AcDbSymbolTableRecord
100
AcDbLayerTableRecord
2
front_profile
70
5
62
7
6
CONTINUOUS
370
0
390
F
0
LAYER
5
47
330
2
100
AcDbSymbolTableRecord
100
AcDbLayerTableRecord
2
motors
70
5
62
7
6
CONTINUOUS
370
0
390
F
0
LAYER
5
48
330
2
100
AcDbSymbolTableRecord
100
AcDbLayerTableRecord
2
stands_profile
70
5
62
7
6
CONTINUOUS
370
0
390
F
0
LAYER
5
49
330
2
100
AcDbSymbolTableRecord
100
AcDbLayerTableRecord
2
stands_top
70
0
62
7
6
CONTINUOUS
370
0
390
F
0
ENDTAB
0
TABLE
2
STYLE
5
3
330
0
100
AcDbSymbolTable
70
3
0
STYLE
5
4A
330
2
100
AcDbSymbolTableRecord
100
AcDbTextStyleTableRecord
2
Standard
70
0
40
0
41
1
50
0
71
0
42
1
3
txt
4

0
ENDTAB
0
TABLE
2
VIEW
5
6
330
0
100
AcDbSymbolTable
70
0
0
ENDTAB
0
TABLE
2
UCS
5
7
330
0
100
AcDbSymbolTable
70
0
0
ENDTAB
0
TABLE
2
APPID
5
9
330
0
100
AcDbSymbolTable
70
1
0
APPID
5
12
330
9
100
AcDbSymbolTableRecord
100
AcDbRegAppTableRecord
2
ACAD
70
0
0
ENDTAB
0
TABLE
2
DIMSTYLE
5
A
330
0
100
AcDbSymbolTable
70
1
100
AcDbDimStyleTable
71
1
0
DIMSTYLE
105
4B
330
A
100
AcDbSymbolTableRecord
100
AcDbDimStyleTableRecord
2
Standard
70
0
40
1
41
2.5
42
0.625
43
0.38
44
1.25
45
0
46
0
47
0
48
0
140
2.5
141
0.09
142
0
143
25.4
144
1
145
0
146
1
147
0.625
148
0
71
0
72
0
73
0
74
1
75
0
76
0
77
0
78
0
79
0
170
0
171
2
172
0
173
0
174
0
175
0
176
0
177
0
178
0
179
0
271
4
272
4
273
2
274
2
275
0
276
0
277
2
278
46
279
0
280
0
281
0
282
0
283
1
284
0
285
0
286
0
288
0
289
3
340
Standard
341

371
-2
372
-2
0
ENDTAB
0
TABLE
2
BLOCK_RECORD
5
1
330
0
100
AcDbSymbolTable
70
2
0
BLOCK_RECORD
5
1F
330
1
100
AcDbSymbolTableRecord
100
AcDbBlockTableRecord
2
*Model_Space
70
0
280
1
281
0
0
BLOCK_RECORD
5
1E
330
1
100
AcDbSymbolTableRecord
100
AcDbBlockTableRecord
2
*Paper_Space
70
0
280
1
281
0
0
ENDTAB
0
ENDSEC
0
SECTION
2
BLOCKS
0
BLOCK
5
20
330
1F
100
AcDbEntity
8
0
100
AcDbBlockBegin
2
*Model_Space
70
0
10
0
20
0
30
0
3
*Model_Space
1

0
ENDBLK
5
21
330
1F
100
AcDbEntity
8
0
100
AcDbBlockEnd
0
BLOCK
5
1C
330
1B
100
AcDbEntity
8
0
100
AcDbBlockBegin
2
*Paper_Space
70
0
10
0
20
0
30
0
3
*Paper_Space
1

0
ENDBLK
5
1D
330
1F
100
AcDbEntity
8
0
100
AcDbBlockEnd
0
ENDSEC
0
SECTION
2
ENTITIES
0
CIRCLE
5
4C
100
AcDbEntity
8
motors
6
ByLayer
62
256
370
-1
100
AcDbCircle
10
-36.25
20
32.5
40
3.5
0
CIRCLE
5
4D
100
AcDbEntity
8
motors
6
ByLayer
62
256
370
-1
100
AcDbCircle
10
36.25
20
32.5
40
3.5
0
CIRCLE
5
4E
100
AcDbEntity
8
motors
6
ByLayer
62
256
370
-1
100
AcDbCircle
10
36.25
20
-30
40
3.5
0
CIRCLE
5
4F
100
AcDbEntity
8
motors
6
ByLayer
62
256
370
-1
100
AcDbCircle
10
-36.25
20
-30
40
3.5
0
LINE
5
50
100
AcDbEntity
8
fligtcontroller
6
ByLayer
62
256
370
-1
100
AcDbLine
10
-9.18485099361e-16
20
15
11
-10
21
15
0
LINE
5
51
100
AcDbEntity
8
fligtcontroller
6
ByLayer
62
256
370
-1
100
AcDbLine
10
9.18485099361e-16
20
-15
11
-10
21
-15
0
LINE
5
52
100
AcDbEntity
8
fligtcontroller
6
ByLayer
62
256
370
-1
100
AcDbLine
10
-9.18485099361e-16
20
15
11
10
21
15
0
LINE
5
53
100
AcDbEntity
8
fligtcontroller
6
ByLayer
62
256
370
-1
100
AcDbLine
10
9.18485099361e-16
20
-15
11
10
21
-15
0
LINE
5
54
100
AcDbEntity
8
fligtcontroller
6
ByLayer
62
256
370
-1
100
AcDbLine
10
10
20
15
11
10
21
-15
0
LINE
5
55
100
AcDbEntity
8
fligtcontroller
6
ByLayer
62
256
370
-1
100
AcDbLine
10
-10
20
15
11
-10
21
-15
0
CIRCLE
5
56
100
AcDbEntity
8
fligtcontroller
6
ByLayer
62
256
370
-1
100
AcDbCircle
10
-8.5
20
-8.5
40
0.5
0
LINE
5
57
100
AcDbEntity
8
fligtcontroller
6
ByLayer
62
256
370
-1
100
AcDbLine
10
0
20
-4
11
0
21
4
0
LINE
5
58
100
AcDbEntity
8
fligtcontroller
6
ByLayer
62
256
370
-1
100
AcDbLine
10
0
20
4
11
2
21
2
0
LINE
5
59
100
AcDbEntity
8
fligtcontroller
6
ByLayer
62
256
370
-1
100
AcDbLine
10
0
20
4
11
-2
21
2
0
LINE
5
5A
100
AcDbEntity
8
frame
6
ByLayer
62
256
370
-1
100
AcDbLine
10
15
20
8.69994411904e-15
11
15
21
-18
0
LINE
5
5B
100
AcDbEntity
8
frame
6
ByLayer
62
256
370
-1
100
AcDbLine
10
-15
20
-1.05369143178e-14
11
-15
21
-18
0
LINE
5
5C
100
AcDbEntity
8
frame
6
ByLayer
62
256
370
-1
100
AcDbLine
10
15
20
-1.83697019872e-15
11
15
21
18
0
LINE
5
5D
100
AcDbEntity
8
frame
6
ByLayer
62
256
370
-1
100
AcDbLine
10
-15
20
-1.05369143178e-14
11
-15
21
18
0
ARC
5
5E
100
AcDbEntity
8
frame
6
ByLayer
62
256
370
-1
100
AcDbCircle
10
9.29021926056
20
27
40
2
100
AcDbArc
50
332.959657031
51
90.0000123133
0
ARC
5
5F
100
AcDbEntity
8
frame
6
ByLayer
62
256
370
-1
100
AcDbCircle
10
-9.29021926056
20
27
40
2
100
AcDbArc
50
90.0000123133
51
207.040321279
0
LINE
5
60
100
AcDbEntity
8
frame
6
ByLayer
62
256
370
-1
100
AcDbLine
10
9.29021883075
20
29
11
-9.29021969038
21
29
0
LINE
5
61
100
AcDbEntity
8
frame
6
ByLayer
62
256
370
-1
100
AcDbLine
10
11.0715925418
20
26.0907644789
11
-1.33226762955e-15
21
4.39930182051
0
LINE
5
62
100
AcDbEntity
8
frame
6
ByLayer
62
256
370
-1
100
AcDbLine
10
-1.7763568394e-15
20
4.39930182051
11
-11.071592886
21
26.0907651532
0
LINE
5
63
100
AcDbEntity
8
frame
6
ByLayer
62
256
370
-1
100
AcDbLine
10
-2.24545840879
20
-1.06581410364e-15
11
-10
21
15.1926968702
0
LINE
5
64
100
AcDbEntity
8
frame
6
ByLayer
62
256
370
-1
100
AcDbLine
10
10
20
-15.1926968702
11
2.24545840879
21
-9.94759830064e-15
0
LINE
5
65
100
AcDbEntity
8
frame
6
ByLayer
62
256
370
-1
100
AcDbLine
10
11.0715925418
20
-26.0907644789
11
1.33226762955e-15
21
-4.39930182051
0
LINE
5
66
100
AcDbEntity
8
frame
6
ByLayer
62
256
370
-1
100
AcDbLine
10
1.33226762955e-15
20
-4.39930182051
11
-11.0715924705
21
-26.0907643392
0
LINE
5
67
100
AcDbEntity
8
frame
6
ByLayer
62
256
370
-1
100
AcDbLine
10
9.29021926056
20
-29
11
-9.29021963754
21
-29
0
ARC
5
68
100
AcDbEntity
8
frame
6
ByLayer
62
256
370
-1
100
AcDbCircle
10
-9.29021926056
20
-27
40
2
100
AcDbArc
50
152.959652539
51
269.999989201
0
ARC
5
69
100
AcDbEntity
8
frame
6
ByLayer
62
256
370
-1
100
AcDbCircle
10
9.29021926056
20
-27
40
2
100
AcDbArc
50
269.999992364
51
27.0403429691
0
CIRCLE
5
6A
100
AcDbEntity
8
frame
6
ByLayer
62
256
370
-1
100
AcDbCircle
10
-8.5
20
-8.5
40
0.4
0
CIRCLE
5
6B
100
AcDbEntity
8
frame
6
ByLayer
62
256
370
-1
100
AcDbCircle
10
-12
20
17
40
1
0
CIRCLE
5
6C
100
AcDbEntity
8
frame
6
ByLayer
62
256
370
-1
100
AcDbCircle
10
12
20
17
40
1
0
CIRCLE
5
6D
100
AcDbEntity
8
frame
6
ByLayer
62
256
370
-1
100
AcDbCircle
10
-12
20
-17
40
1
0
CIRCLE
5
6E
100
AcDbEntity
8
frame
6
ByLayer
62
256
370
-1
100
AcDbCircle
10
12
20
-17
40
1
0
LINE
5
6F
100
AcDbEntity
8
fligtcontroller
6
ByLayer
62
256
370
-1
100
AcDbLine
10
-10
20
15
11
-10
21
7.5
0
LINE
5
70
100
AcDbEntity
8
fligtcontroller
6
ByLayer
62
256
370
-1
100
AcDbLine
10
10
20
15
11
10
21
7.5
0
LINE
5
71
100
AcDbEntity
8
fligtcontroller
6
ByLayer
62
256
370
-1
100
AcDbLine
10
-10
20
7.5
11
-9
21
7.5
0
LINE
5
72
100
AcDbEntity
8
fligtcontroller
6
ByLayer
62
256
370
-1
100
AcDbLine
10
10
20
7.5
11
9
21
7.5
0
CIRCLE
5
73
100
AcDbEntity
8
fligtcontroller
6
ByLayer
62
256
370
-1
100
AcDbCircle
10
8.5
20
11
40
0.5
0
LINE
5
74
100
AcDbEntity
8
frame
6
ByLayer
62
256
370
-1
100
AcDbLine
10
-10
20
15.1926968702
11
-10
21
-7
0
LINE
5
75
100
AcDbEntity
8
frame
6
ByLayer
62
256
370
-1
100
AcDbLine
10
-10
20
-10
11
-10
21
-15.1926968702
0
LINE
5
76
100
AcDbEntity
8
frame
6
ByLayer
62
256
370
-1
100
AcDbLine
10
-7.34958288219
20
-10
11
-10
21
-15.1926968702
0
LINE
5
77
100
AcDbEntity
8
frame
6
ByLayer
62
256
370
-1
100
AcDbLine
10
-2.24545840879
20
-1.06581410364e-15
11
-5.81834554017
21
-7
0
LINE
5
78
100
AcDbEntity
8
frame
6
ByLayer
62
256
370
-1
100
AcDbLine
10
-8.5
20
-7
11
-5.81834554017
21
-7
0
LINE
5
79
100
AcDbEntity
8
frame
6
ByLayer
62
256
370
-1
100
AcDbLine
10
-8.5
20
-10
11
-7.34958288219
21
-10
0
LINE
5
7A
100
AcDbEntity
8
frame
6
ByLayer
62
256
370
-1
100
AcDbLine
10
-8.5
20
-10
11
-10
21
-10
0
LINE
5
7B
100
AcDbEntity
8
frame
6
ByLayer
62
256
370
-1
100
AcDbLine
10
-8.5
20
-7
11
-10
21
-7
0
LINE
5
7C
100
AcDbEntity
8
frame
6
ByLayer
62
256
370
-1
100
AcDbLine
10
-27.7397609732
20
27.6173650138
11
-30.8561434161
21
26.7295809917
0
LINE
5
7D
100
AcDbEntity
8
frame
6
ByLayer
62
256
370
-1
100
AcDbLine
10
27.7397609732
20
27.6173650138
11
30.8561434161
21
26.7295809917
0
LINE
5
7E
100
AcDbEntity
8
frame
6
ByLayer
62
256
370
-1
100
AcDbLine
10
27.7397609732
20
-27.6173650138
11
30.8561434161
21
-26.7295809917
0
LINE
5
7F
100
AcDbEntity
8
frame
6
ByLayer
62
256
370
-1
100
AcDbLine
10
-30.8561434161
20
-26.7295809917
11
-27.7397609732
21
-27.6173650138
0
LINE
5
80
100
AcDbEntity
8
frame
6
ByLayer
62
256
370
-1
100
AcDbLine
10
-29.1845930917
20
37.500807638
11
-24.6577034542
21
34.499596181
0
LINE
5
81
100
AcDbEntity
8
frame
6
ByLayer
62
256
370
-1
100
AcDbLine
10
29.1845930917
20
37.500807638
11
24.6577034542
21
34.499596181
0
LINE
5
82
100
AcDbEntity
8
frame
6
ByLayer
62
256
370
-1
100
AcDbLine
10
23
20
34
11
-23
21
34
0
LINE
5
83
100
AcDbEntity
8
frame
6
ByLayer
62
256
370
-1
100
AcDbLine
10
-29.1845930917
20
-37.500807638
11
-24.6577034542
21
-34.499596181
0
LINE
5
84
100
AcDbEntity
8
frame
6
ByLayer
62
256
370
-1
100
AcDbLine
10
29.1845930917
20
-37.500807638
11
24.6577034542
21
-34.499596181
0
ARC
5
85
100
AcDbEntity
8
frame
6
ByLayer
62
256
370
-1
100
AcDbCircle
10
-23
20
-37
40
3
100
AcDbArc
50
90
51
123.543362715
0
LINE
5
86
100
AcDbEntity
8
frame
6
ByLayer
62
256
370
-1
100
AcDbLine
10
23
20
-34
11
-23
21
-34
0
ARC
5
87
100
AcDbEntity
8
frame
6
ByLayer
62
256
370
-1
100
AcDbCircle
10
23
20
-37
40
3
100
AcDbArc
50
56.4566450111
51
90
0
ARC
5
88
100
AcDbEntity
8
frame
6
ByLayer
62
256
370
-1
100
AcDbCircle
10
25
20
-18
40
10
100
AcDbArc
50
180
51
285.90100153
0
ARC
5
89
100
AcDbEntity
8
frame
6
ByLayer
62
256
370
-1
100
AcDbCircle
10
-25
20
-18
40
10
100
AcDbArc
50
254.098997293
51
359.999998634
0
ARC
5
8A
100
AcDbEntity
8
frame
6
ByLayer
62
256
370
-1
100
AcDbCircle
10
-23
20
37
40
3
100
AcDbArc
50
236.456645011
51
270
0
ARC
5
8B
100
AcDbEntity
8
frame
6
ByLayer
62
256
370
-1
100
AcDbCircle
10
-25
20
18
40
10
100
AcDbArc
50
1.36603782891e-06
51
105.901005548
0
ARC
5
8C
100
AcDbEntity
8
frame
6
ByLayer
62
256
370
-1
100
AcDbCircle
10
25
20
18
40
10
100
AcDbArc
50
74.0989984698
51
180.000001366
0
ARC
5
8D
100
AcDbEntity
8
frame
6
ByLayer
62
256
370
-1
100
AcDbCircle
10
23
20
37
40
3
100
AcDbArc
50
270
51
303.543362715
0
LINE
5
8E
100
AcDbEntity
8
frame
6
ByLayer
62
256
370
-1
100
AcDbLine
10
-35.9910600109
20
32.75
11
-38.4947894041
21
32.75
0
LINE
5
8F
100
AcDbEntity
8
frame
6
ByLayer
62
256
370
-1
100
AcDbLine
10
-35.9910600109
20
32.25
11
-38.4947894041
21
32.25
0
ARC
5
90
100
AcDbEntity
8
frame
6
ByLayer
62
256
370
-1
100
AcDbCircle
10
-32.5
20
32.5
40
6
100
AcDbArc
50
56.4566395479
51
177.611984537
0
ARC
5
91
100
AcDbEntity
8
frame
6
ByLayer
62
256
370
-1
100
AcDbCircle
10
-32.5
20
32.5
40
6
100
AcDbArc
50
182.388015463
51
285.901000813
0
ARC
5
92
100
AcDbEntity
8
frame
6
ByLayer
62
256
370
-1
100
AcDbCircle
10
32.5
20
32.5
40
6
100
AcDbArc
50
2.38801546327
51
123.543351126
0
ARC
5
93
100
AcDbEntity
8
frame
6
ByLayer
62
256
370
-1
100
AcDbCircle
10
32.5
20
32.5
40
6
100
AcDbArc
50
254.098999187
51
357.611984537
0
LINE
5
94
100
AcDbEntity
8
frame
6
ByLayer
62
256
370
-1
100
AcDbLine
10
35.9910600109
20
32.75
11
38.4947894041
21
32.75
0
LINE
5
95
100
AcDbEntity
8
frame
6
ByLayer
62
256
370
-1
100
AcDbLine
10
35.9910600109
20
32.25
11
38.4947894041
21
32.25
0
LINE
5
96
100
AcDbEntity
8
frame
6
ByLayer
62
256
370
-1
100
AcDbLine
10
35.9910600109
20
-32.25
11
38.4947894041
21
-32.25
0
LINE
5
97
100
AcDbEntity
8
frame
6
ByLayer
62
256
370
-1
100
AcDbLine
10
35.9910600109
20
-32.75
11
38.4947894041
21
-32.75
0
ARC
5
98
100
AcDbEntity
8
frame
6
ByLayer
62
256
370
-1
100
AcDbCircle
10
32.5
20
-32.5
40
6
100
AcDbArc
50
2.38801546327
51
105.901005548
0
ARC
5
99
100
AcDbEntity
8
frame
6
ByLayer
62
256
370
-1
100
AcDbCircle
10
32.5
20
-32.5
40
6
100
AcDbArc
50
236.456645011
51
357.611984537
0
LINE
5
9A
100
AcDbEntity
8
frame
6
ByLayer
62
256
370
-1
100
AcDbLine
10
-35.9910600109
20
-32.25
11
-38.4947894041
21
-32.25
0
ARC
5
9B
100
AcDbEntity
8
frame
6
ByLayer
62
256
370
-1
100
AcDbCircle
10
-32.5
20
-32.5
40
6
100
AcDbArc
50
182.388015463
51
303.543358852
0
ARC
5
9C
100
AcDbEntity
8
frame
6
ByLayer
62
256
370
-1
100
AcDbCircle
10
-32.5
20
-32.5
40
6
100
AcDbArc
50
74.0989944524
51
177.611984537
0
LINE
5
9D
100
AcDbEntity
8
frame
6
ByLayer
62
256
370
-1
100
AcDbLine
10
-35.9910600109
20
-32.75
11
-38.4947894041
21
-32.75
0
LINE
5
9E
100
AcDbEntity
8
frame
6
ByLayer
62
256
370
-1
100
AcDbLine
10
13.5
20
27
11
13.5
21
25.5
0
LINE
5
9F
100
AcDbEntity
8
frame
6
ByLayer
62
256
370
-1
100
AcDbLine
10
13.5
20
27
11
13.5
21
28.5
0
LINE
5
A0
100
AcDbEntity
8
frame
6
ByLayer
62
256
370
-1
100
AcDbLine
10
13.5
20
28.5
11
15
21
28.5
0
LINE
5
A1
100
AcDbEntity
8
frame
6
ByLayer
62
256
370
-1
100
AcDbLine
10
13.5
20
25.5
11
15
21
25.5
0
ARC
5
A2
100
AcDbEntity
8
frame
6
ByLayer
62
256
370
-1
100
AcDbCircle
10
15
20
27
40
1.5
100
AcDbArc
50
270
51
450
0
LINE
5
A3
100
AcDbEntity
8
frame
6
ByLayer
62
256
370
-1
100
AcDbLine
10
13.5
20
-27
11
13.5
21
-25.5
0
LINE
5
A4
100
AcDbEntity
8
frame
6
ByLayer
62
256
370
-1
100
AcDbLine
10
13.5
20
-27
11
13.5
21
-28.5
0
LINE
5
A5
100
AcDbEntity
8
frame
6
ByLayer
62
256
370
-1
100
AcDbLine
10
13.5
20
-28.5
11
15
21
-28.5
0
LINE
5
A6
100
AcDbEntity
8
frame
6
ByLayer
62
256
370
-1
100
AcDbLine
10
13.5
20
-25.5
11
15
21
-25.5
0
ARC
5
A7
100
AcDbEntity
8
frame
6
ByLayer
62
256
370
-1
100
AcDbCircle
10
15
20
-27
40
1.5
100
AcDbArc
50
270
51
90
0
ARC
5
A8
100
AcDbEntity
8
frame
6
ByLayer
62
256
370
-1
100
AcDbCircle
10
-32.5
20
32.5
40
3.5
100
AcDbArc
50
355.903956242
51
4.09604375815
0
ARC
5
A9
100
AcDbEntity
8
frame
6
ByLayer
62
256
370
-1
100
AcDbCircle
10
32.5
20
32.5
40
3.5
100
AcDbArc
50
175.903956242
51
184.096043758
0
ARC
5
AA
100
AcDbEntity
8
frame
6
ByLayer
62
256
370
-1
100
AcDbCircle
10
32.5
20
-32.5
40
3.5
100
AcDbArc
50
175.903956242
51
184.096043758
0
ARC
5
AB
100
AcDbEntity
8
frame
6
ByLayer
62
256
370
-1
100
AcDbCircle
10
-32.5
20
-32.5
40
3.5
100
AcDbArc
50
355.903956242
51
4.09604375815
0
ARC
5
AC
100
AcDbEntity
8
frame
6
ByLayer
62
256
370
-1
100
AcDbCircle
10
-32.5
20
-32.5
40
3
100
AcDbArc
50
4.7801918472
51
175.219808153
0
ARC
5
AD
100
AcDbEntity
8
frame
6
ByLayer
62
256
370
-1
100
AcDbCircle
10
-32.5
20
-32.5
40
3
100
AcDbArc
50
184.780191847
51
355.219808153
0
LINE
5
AE
100
AcDbEntity
8
frame
6
ByLayer
62
256
370
-1
100
AcDbLine
10
-29.5104348142
20
-32.75
11
-29.0089399891
21
-32.75
0
LINE
5
AF
100
AcDbEntity
8
frame
6
ByLayer
62
256
370
-1
100
AcDbLine
10
-35.9910600109
20
-32.75
11
-35.4895651858
21
-32.75
0
LINE
5
B0
100
AcDbEntity
8
frame
6
ByLayer
62
256
370
-1
100
AcDbLine
10
-35.9910600109
20
-32.25
11
-35.4895651858
21
-32.25
0
LINE
5
B1
100
AcDbEntity
8
frame
6
ByLayer
62
256
370
-1
100
AcDbLine
10
-29.5104348142
20
-32.25
11
-29.0089399891
21
-32.25
0
LINE
5
B2
100
AcDbEntity
8
frame
6
ByLayer
62
256
370
-1
100
AcDbLine
10
29.5104348142
20
-32.25
11
29.0089399891
21
-32.25
0
LINE
5
B3
100
AcDbEntity
8
frame
6
ByLayer
62
256
370
-1
100
AcDbLine
10
35.9910600109
20
-32.25
11
35.4895651858
21
-32.25
0
LINE
5
B4
100
AcDbEntity
8
frame
6
ByLayer
62
256
370
-1
100
AcDbLine
10
35.9910600109
20
-32.75
11
35.4895651858
21
-32.75
0
LINE
5
B5
100
AcDbEntity
8
frame
6
ByLayer
62
256
370
-1
100
AcDbLine
10
29.5104348142
20
-32.75
11
29.0089399891
21
-32.75
0
ARC
5
B6
100
AcDbEntity
8
frame
6
ByLayer
62
256
370
-1
100
AcDbCircle
10
32.5
20
-32.5
40
3
100
AcDbArc
50
4.7801918472
51
175.219808153
0
ARC
5
B7
100
AcDbEntity
8
frame
6
ByLayer
62
256
370
-1
100
AcDbCircle
10
32.5
20
-32.5
40
3
100
AcDbArc
50
184.780191847
51
355.219808153
0
ARC
5
B8
100
AcDbEntity
8
frame
6
ByLayer
62
256
370
-1
100
AcDbCircle
10
32.5
20
32.5
40
3
100
AcDbArc
50
4.7801918472
51
175.219808153
0
ARC
5
B9
100
AcDbEntity
8
frame
6
ByLayer
62
256
370
-1
100
AcDbCircle
10
32.5
20
32.5
40
3
100
AcDbArc
50
184.780191847
51
355.219808153
0
LINE
5
BA
100
AcDbEntity
8
frame
6
ByLayer
62
256
370
-1
100
AcDbLine
10
29.5104348142
20
32.25
11
29.0089399891
21
32.25
0
LINE
5
BB
100
AcDbEntity
8
frame
6
ByLayer
62
256
370
-1
100
AcDbLine
10
29.5104348142
20
32.75
11
29.0089399891
21
32.75
0
LINE
5
BC
100
AcDbEntity
8
frame
6
ByLayer
62
256
370
-1
100
AcDbLine
10
35.9910600109
20
32.75
11
35.4895651858
21
32.75
0
LINE
5
BD
100
AcDbEntity
8
frame
6
ByLayer
62
256
370
-1
100
AcDbLine
10
35.9910600109
20
32.25
11
35.4895651858
21
32.25
0
LINE
5
BE
100
AcDbEntity
8
frame
6
ByLayer
62
256
370
-1
100
AcDbLine
10
-35.9910600109
20
32.75
11
-35.4895651858
21
32.75
0
LINE
5
BF
100
AcDbEntity
8
frame
6
ByLayer
62
256
370
-1
100
AcDbLine
10
-35.9910600109
20
32.25
11
-35.4895651858
21
32.25
0
ARC
5
C0
100
AcDbEntity
8
frame
6
ByLayer
62
256
370
-1
100
AcDbCircle
10
-32.5
20
32.5
40
3
100
AcDbArc
50
4.7801918472
51
175.219808153
0
ARC
5
C1
100
AcDbEntity
8
frame
6
ByLayer
62
256
370
-1
100
AcDbCircle
10
-32.5
20
32.5
40
3
100
AcDbArc
50
184.780191847
51
353.734196693
0
ARC
5
C2
100
AcDbEntity
8
frame
6
ByLayer
62
256
370
-1
100
AcDbCircle
10
-32.5
20
32.5
40
3
100
AcDbArc
50
353.734196693
51
355.219808153
0
LINE
5
C3
100
AcDbEntity
8
frame
6
ByLayer
62
256
370
-1
100
AcDbLine
10
-29.5104348142
20
32.75
11
-29.0089399891
21
32.75
0
LINE
5
C4
100
AcDbEntity
8
frame
6
ByLayer
62
256
370
-1
100
AcDbLine
10
-29.5104348142
20
32.25
11
-29.0089399891
21
32.25
0
LINE
5
C5
100
AcDbEntity
8
front_profile
6
ByLayer
62
256
370
-1
100
AcDbLine
10
38.5
20
7.1054273576e-15
11
38.5
21
10
0
LINE
5
C6
100
AcDbEntity
8
front_profile
6
ByLayer
62
256
370
-1
100
AcDbLine
10
38.5
20
10
11
27.0173069756
21
10
0
LINE
5
C7
100
AcDbEntity
8
front_profile
6
ByLayer
62
256
370
-1
100
AcDbLine
10
27.0173069756
20
10
11
27
21
10
0
LINE
5
C8
100
AcDbEntity
8
front_profile
6
ByLayer
62
256
370
-1
100
AcDbLine
10
-38.5
20
1.00185334963e-27
11
-38.5
21
10
0
LINE
5
C9
100
AcDbEntity
8
front_profile
6
ByLayer
62
256
370
-1
100
AcDbLine
10
-38.5
20
10
11
-27.0173069756
21
10
0
LINE
5
CA
100
AcDbEntity
8
front_profile
6
ByLayer
62
256
370
-1
100
AcDbLine
10
-27.0173069756
20
10
11
-27
21
10
0
LINE
5
CB
100
AcDbEntity
8
front_profile
6
ByLayer
62
256
370
-1
100
AcDbLine
10
-38.5
20
1.00185334963e-27
11
38.5
21
7.1054273576e-15
0
ARC
5
CC
100
AcDbEntity
8
front_profile
6
ByLayer
62
256
370
-1
100
AcDbCircle
10
-19.5
20
10
40
7.5
100
AcDbArc
50
180
51
270.000001821
0
ARC
5
CD
100
AcDbEntity
8
front_profile
6
ByLayer
62
256
370
-1
100
AcDbCircle
10
19.5
20
10
40
7.5
100
AcDbArc
50
269.999998179
51
360
0
LINE
5
CE
100
AcDbEntity
8
front_profile
6
ByLayer
62
256
370
-1
100
AcDbLine
10
-19.4999997616
20
2.5
11
19.4999997616
21
2.5
0
CIRCLE
5
CF
100
AcDbEntity
8
frame
6
ByLayer
62
256
370
-1
100
AcDbCircle
10
8.5
20
10.5
40
0.4
0
LINE
5
D0
100
AcDbEntity
8
frame
6
ByLayer
62
256
370
-1
100
AcDbLine
10
8.5
20
9
11
7.09437665852
21
9
0
LINE
5
D1
100
AcDbEntity
8
frame
6
ByLayer
62
256
370
-1
100
AcDbLine
10
10
20
15.1926968702
11
10
21
12
0
LINE
5
D2
100
AcDbEntity
8
frame
6
ByLayer
62
256
370
-1
100
AcDbLine
10
10
20
9
11
10
21
-15.1926968702
0
LINE
5
D3
100
AcDbEntity
8
frame
6
ByLayer
62
256
370
-1
100
AcDbLine
10
10
20
12
11
8.37040777687
21
12
0
LINE
5
D4
100
AcDbEntity
8
frame
6
ByLayer
62
256
370
-1
100
AcDbLine
10
10
20
9
11
6.83917043485
21
9
0
LINE
5
D5
100
AcDbEntity
8
frame
6
ByLayer
62
256
370
-1
100
AcDbLine
10
8.37040777687
20
12
11
10
21
15.1926968702
0
LINE
5
D6
100
AcDbEntity
8
frame
6
ByLayer
62
256
370
-1
100
AcDbLine
10
2.24545840879
20
-9.94759830064e-15
11
6.83917043485
21
9
0
LINE
5
D7
100
AcDbEntity
8
stands_profile
6
ByLayer
62
256
370
-1
100
AcDbLine
10
-27
20
-0.5
11
-25.5
21
-0.5
0
LINE
5
D8
100
AcDbEntity
8
stands_profile
6
ByLayer
62
256
370
-1
100
AcDbLine
10
-27
20
-0.5
11
-28.5
21
-0.5
0
LINE
5
D9
100
AcDbEntity
8
stands_profile
6
ByLayer
62
256
370
-1
100
AcDbLine
10
-28.5
20
-0.5
11
-28.5
21
1
0
ARC
5
DA
100
AcDbEntity
8
stands_profile
6
ByLayer
62
256
370
-1
100
AcDbCircle
10
-27
20
1
40
1.5
100
AcDbArc
50
360
51
180
0
LINE
5
DB
100
AcDbEntity
8
stands_profile
6
ByLayer
62
256
370
-1
100
AcDbLine
10
27
20
-0.5
11
25.5
21
-0.5
0
LINE
5
DC
100
AcDbEntity
8
stands_profile
6
ByLayer
62
256
370
-1
100
AcDbLine
10
27
20
-0.5
11
28.5
21
-0.5
0
LINE
5
DD
100
AcDbEntity
8
stands_profile
6
ByLayer
62
256
370
-1
100
AcDbLine
10
28.5
20
-0.5
11
28.5
21
1
0
ARC
5
DE
100
AcDbEntity
8
stands_profile
6
ByLayer
62
256
370
-1
100
AcDbCircle
10
27
20
1
40
1.5
100
AcDbArc
50
360
51
180
0
LINE
5
DF
100
AcDbEntity
8
stands_profile
6
ByLayer
62
256
370
-1
100
AcDbLine
10
-25.5
20
1.0000000596
11
25.5
21
0.999999940395
0
LINE
5
E0
100
AcDbEntity
8
stands_profile
6
ByLayer
62
256
370
-1
100
AcDbLine
10
-25.5
20
-0.5
11
25.5
21
-0.5
0
LINE
5
E1
100
AcDbEntity
8
stands_top
6
ByLayer
62
256
370
-1
100
AcDbLine
10
-25.5
20
5.49999989676
11
-25.5
21
14.5
0
ARC
5
E2
100
AcDbEntity
8
stands_top
6
ByLayer
62
256
370
-1
100
AcDbCircle
10
-22.5
20
5.5
40
3
100
AcDbArc
50
180.000003415
51
270
0
LINE
5
E3
100
AcDbEntity
8
stands_top
6
ByLayer
62
256
370
-1
100
AcDbLine
10
25.5
20
5.49999989676
11
25.5
21
14.5
0
LINE
5
E4
100
AcDbEntity
8
stands_top
6
ByLayer
62
256
370
-1
100
AcDbLine
10
-22.5
20
2.5
11
22.5
21
2.5
0
ARC
5
E5
100
AcDbEntity
8
stands_top
6
ByLayer
62
256
370
-1
100
AcDbCircle
10
22.5
20
5.5
40
3
100
AcDbArc
50
270
51
359.999998028
0
ARC
5
E6
100
AcDbEntity
8
stands_top
6
ByLayer
62
256
370
-1
100
AcDbCircle
10
-22.5
20
5.5
40
6
100
AcDbArc
50
180.000003415
51
270
0
ARC
5
E7
100
AcDbEntity
8
stands_top
6
ByLayer
62
256
370
-1
100
AcDbCircle
10
22.5
20
5.5
40
6
100
AcDbArc
50
270
51
359.999998028
0
LINE
5
E8
100
AcDbEntity
8
stands_top
6
ByLayer
62
256
370
-1
100
AcDbLine
10
-22.5
20
-0.5
11
22.5
21
-0.5
0
LINE
5
E9
100
AcDbEntity
8
stands_top
6
ByLayer
62
256
370
-1
100
AcDbLine
10
28.5
20
5.49999979352
11
28.5
21
14.5
0
LINE
5
EA
100
AcDbEntity
8
stands_top
6
ByLayer
62
256
370
-1
100
AcDbLine
10
-28.5
20
5.49999964237
11
-28.5
21
14.5
0
LINE
5
EB
100
AcDbEntity
8
stands_top
6
ByLayer
62
256
370
-1
100
AcDbLine
10
-28.5
20
14.5
11
-25.5
21
14.5
0
LINE
5
EC
100
AcDbEntity
8
stands_top
6
ByLayer
62
256
370
-1
100
AcDbLine
10
25.5
20
14.5
11
28.5
21
14.5
0
ENDSEC
0
SECTION
2
OBJECTS
0
DICTIONARY
5
C
330
0
100
AcDbDictionary
281
1
3
ACAD_GROUP
350
D
0
DICTIONARY
5
D
330
C
100
AcDbDictionary
281
1
0
ENDSEC
0
EOF
